<svg width="686" height="369" viewBox="0 0 686 369" fill="none" xmlns="http://www.w3.org/2000/svg">
<g clip-path="url(#clip0)">
<path opacity="0.1" d="M686 236.847C686.008 246.871 684.626 256.849 681.893 266.495C679.251 275.795 675.364 284.698 670.337 292.964C670.337 322.911 650.057 348.793 620.62 361.107C608.32 366.2 595.125 368.801 581.805 368.758H130.226C106.09 368.758 83.7235 362.266 65.3802 351.208C60.1304 348.058 55.1504 344.481 50.4908 340.514C30.1027 323.048 17.4621 298.911 17.4621 272.252C6.01965 254.688 -0.0476575 234.185 0.000281904 213.242C0.000281904 169.392 26.0191 131.686 63.2934 115.039C68.243 112.829 73.3574 111.007 78.5905 109.587C80.4414 109.085 82.3123 108.635 84.2032 108.236C89.2439 107.166 94.3567 106.467 99.5003 106.144C101.359 106.029 103.228 105.963 105.107 105.947H106.138C108.213 105.947 110.27 106.019 112.315 106.138L112.986 105.003C113.81 103.632 114.653 102.275 115.517 100.932C117.076 98.4852 118.711 96.0743 120.422 93.6993C122.213 91.1927 124.082 88.726 126.029 86.2992L126.527 85.7014C127.63 84.3306 128.757 82.9757 129.909 81.6368C133.506 77.4565 137.304 73.4018 141.302 69.4726C184.543 27.224 252.285 0.0266113 328.441 0.0266113C387.698 0.0266113 441.865 16.4945 483.354 43.7038C499.072 34.8372 516.828 30.1848 534.888 30.2008C593.498 30.2008 641.026 78.2416 641.026 137.502C641.018 141.252 640.818 144.998 640.427 148.728C654.555 158.697 666.07 171.907 674.002 187.243C681.934 202.58 686.049 219.593 686 236.847Z" fill="#FFC700"/>
<path opacity="0.2" d="M141.314 69.446V81.6101H129.92C133.49 77.4339 137.288 73.3792 141.314 69.446Z" fill="#FFC700"/>
<path opacity="0.2" d="M162.223 66.3615H146.926V81.6099H162.223V66.3615Z" fill="#FFC700"/>
<path opacity="0.2" d="M183.127 66.3615H167.83V81.6099H183.127V66.3615Z" fill="#FFC700"/>
<path opacity="0.2" d="M204.037 66.3615H188.74V81.6099H204.037V66.3615Z" fill="#FFC700"/>
<path opacity="0.2" d="M224.941 66.3615H209.644V81.6099H224.941V66.3615Z" fill="#FFC700"/>
<path opacity="0.2" d="M245.85 66.3615H230.553V81.6099H245.85V66.3615Z" fill="#FFC700"/>
<path d="M266.76 66.3615H251.463V81.6099H266.76V66.3615Z" fill="#FFC700"/>
<path opacity="0.2" d="M287.664 66.3615H272.367V81.6099H287.664V66.3615Z" fill="#FFC700"/>
<path opacity="0.2" d="M308.574 66.3615H293.277V81.6099H308.574V66.3615Z" fill="#FFC700"/>
<path opacity="0.2" d="M329.478 66.3615H314.181V81.6099H329.478V66.3615Z" fill="#FFC700"/>
<path d="M350.387 66.3615H335.09V81.6099H350.387V66.3615Z" fill="#FFC700"/>
<path opacity="0.2" d="M371.298 66.3615H356.001V81.6099H371.298V66.3615Z" fill="#FFC700"/>
<path opacity="0.2" d="M392.201 66.3615H376.904V81.6099H392.201V66.3615Z" fill="#FFC700"/>
<path opacity="0.2" d="M413.111 66.3615H397.814V81.6099H413.111V66.3615Z" fill="#FFC700"/>
<path opacity="0.2" d="M434.021 66.3615H418.724V81.6099H434.021V66.3615Z" fill="#FFC700"/>
<path opacity="0.2" d="M454.925 66.3615H439.627V81.6099H454.925V66.3615Z" fill="#FFC700"/>
<path opacity="0.2" d="M475.834 66.3615H460.537V81.6099H475.834V66.3615Z" fill="#FFC700"/>
<path d="M496.738 66.3615H481.441V81.6099H496.738V66.3615Z" fill="#FFC700"/>
<path d="M517.648 66.3615H502.351V81.6099H517.648V66.3615Z" fill="#FFC700"/>
<path opacity="0.2" d="M538.558 66.3615H523.261V81.6099H538.558V66.3615Z" fill="#FFC700"/>
<path opacity="0.2" d="M559.462 66.3615H544.165V81.6099H559.462V66.3615Z" fill="#FFC700"/>
<path d="M580.372 66.3615H565.074V81.6099H580.372V66.3615Z" fill="#FFC700"/>
<path d="M601.275 66.3615H585.978V81.6099H601.275V66.3615Z" fill="#FFC700"/>
<path d="M120.41 93.6904V100.923H115.505C117.064 98.4604 118.699 96.0495 120.41 93.6904Z" fill="#FFC700"/>
<path opacity="0.2" d="M141.314 85.6749H126.017V100.923H141.314V85.6749Z" fill="#FFC700"/>
<path d="M162.223 85.6749H146.926V100.923H162.223V85.6749Z" fill="#FFC700"/>
<path opacity="0.2" d="M183.127 85.6749H167.83V100.923H183.127V85.6749Z" fill="#FFC700"/>
<path opacity="0.7" d="M204.037 85.6749H188.74V100.923H204.037V85.6749Z" fill="#FFC700"/>
<path opacity="0.2" d="M224.941 85.6749H209.644V100.923H224.941V85.6749Z" fill="#FFC700"/>
<path opacity="0.4" d="M245.85 85.6749H230.553V100.923H245.85V85.6749Z" fill="#FFC700"/>
<path d="M266.76 85.6749H251.463V100.923H266.76V85.6749Z" fill="#FFC700"/>
<path opacity="0.4" d="M287.664 85.6749H272.367V100.923H287.664V85.6749Z" fill="#FFC700"/>
<path opacity="0.2" d="M308.574 85.6749H293.277V100.923H308.574V85.6749Z" fill="#FFC700"/>
<path opacity="0.4" d="M329.478 85.6749H314.181V100.923H329.478V85.6749Z" fill="#FFC700"/>
<path d="M350.387 85.6749H335.09V100.923H350.387V85.6749Z" fill="#FFC700"/>
<path opacity="0.4" d="M371.298 85.6749H356.001V100.923H371.298V85.6749Z" fill="#FFC700"/>
<path opacity="0.4" d="M392.201 85.6749H376.904V100.923H392.201V85.6749Z" fill="#FFC700"/>
<path opacity="0.2" d="M413.111 85.6749H397.814V100.923H413.111V85.6749Z" fill="#FFC700"/>
<path opacity="0.4" d="M434.021 85.6749H418.724V100.923H434.021V85.6749Z" fill="#FFC700"/>
<path opacity="0.4" d="M454.925 85.6749H439.627V100.923H454.925V85.6749Z" fill="#FFC700"/>
<path opacity="0.2" d="M475.834 85.6749H460.537V100.923H475.834V85.6749Z" fill="#FFC700"/>
<path opacity="0.2" d="M496.738 85.6749H481.441V100.923H496.738V85.6749Z" fill="#FFC700"/>
<path opacity="0.4" d="M517.648 85.6749H502.351V100.923H517.648V85.6749Z" fill="#FFC700"/>
<path opacity="0.2" d="M538.558 85.6749H523.261V100.923H538.558V85.6749Z" fill="#FFC700"/>
<path d="M559.462 85.6749H544.165V100.923H559.462V85.6749Z" fill="#FFC700"/>
<path d="M580.372 85.6749H565.074V100.923H580.372V85.6749Z" fill="#FFC700"/>
<path d="M601.275 85.6749H585.978V100.923H601.275V85.6749Z" fill="#FFC700"/>
<path opacity="0.2" d="M78.59 109.585V120.242H63.293V115.036C68.2426 112.827 73.357 111.004 78.59 109.585Z" fill="#FFC700"/>
<path opacity="0.2" d="M99.4997 106.141V120.242H84.2026V108.234L99.4997 106.141Z" fill="#FFC700"/>
<path d="M120.404 104.994H105.107V120.242H120.404V104.994Z" fill="#FFC700"/>
<path opacity="0.7" d="M141.314 104.994H126.017V120.242H141.314V104.994Z" fill="#FFC700"/>
<path d="M162.223 104.994H146.926V120.242H162.223V104.994Z" fill="#FFC700"/>
<path opacity="0.7" d="M183.127 104.994H167.83V120.242H183.127V104.994Z" fill="#FFC700"/>
<path opacity="0.7" d="M204.037 104.994H188.74V120.242H204.037V104.994Z" fill="#FFC700"/>
<path opacity="0.2" d="M224.941 104.994H209.644V120.242H224.941V104.994Z" fill="#FFC700"/>
<path opacity="0.4" d="M245.85 104.994H230.553V120.242H245.85V104.994Z" fill="#FFC700"/>
<path opacity="0.4" d="M266.76 104.994H251.463V120.242H266.76V104.994Z" fill="#FFC700"/>
<path d="M287.664 104.994H272.367V120.242H287.664V104.994Z" fill="#FFC700"/>
<path opacity="0.2" d="M308.574 104.994H293.277V120.242H308.574V104.994Z" fill="#FFC700"/>
<path opacity="0.4" d="M329.478 104.994H314.181V120.242H329.478V104.994Z" fill="#FFC700"/>
<path d="M350.387 104.994H335.09V120.242H350.387V104.994Z" fill="#FFC700"/>
<path opacity="0.2" d="M371.298 104.994H356.001V120.242H371.298V104.994Z" fill="#FFC700"/>
<path opacity="0.4" d="M392.201 104.994H376.904V120.242H392.201V104.994Z" fill="#FFC700"/>
<path opacity="0.2" d="M413.111 104.994H397.814V120.242H413.111V104.994Z" fill="#FFC700"/>
<path d="M434.021 104.994H418.724V120.242H434.021V104.994Z" fill="#FFC700"/>
<path opacity="0.2" d="M454.925 104.994H439.627V120.242H454.925V104.994Z" fill="#FFC700"/>
<path opacity="0.7" d="M475.834 104.994H460.537V120.242H475.834V104.994Z" fill="#FFC700"/>
<path opacity="0.7" d="M496.738 104.994H481.441V120.242H496.738V104.994Z" fill="#FFC700"/>
<path opacity="0.4" d="M517.648 104.994H502.351V120.242H517.648V104.994Z" fill="#FFC700"/>
<path opacity="0.2" d="M538.558 104.994H523.261V120.242H538.558V104.994Z" fill="#FFC700"/>
<path d="M559.462 104.994H544.165V120.242H559.462V104.994Z" fill="#FFC700"/>
<path d="M580.372 104.994H565.074V120.242H580.372V104.994Z" fill="#FFC700"/>
<path d="M601.275 104.994H585.978V120.242H601.275V104.994Z" fill="#FFC700"/>
<path opacity="0.2" d="M78.59 124.307H63.293V139.555H78.59V124.307Z" fill="#FFC700"/>
<path opacity="0.2" d="M99.4997 124.307H84.2026V139.555H99.4997V124.307Z" fill="#FFC700"/>
<path opacity="0.2" d="M120.404 124.307H105.107V139.555H120.404V124.307Z" fill="#FFC700"/>
<path opacity="0.2" d="M141.314 124.307H126.017V139.555H141.314V124.307Z" fill="#FFC700"/>
<path d="M162.223 124.307H146.926V139.555H162.223V124.307Z" fill="#FFC700"/>
<path opacity="0.7" d="M183.127 124.307H167.83V139.555H183.127V124.307Z" fill="#FFC700"/>
<path opacity="0.7" d="M204.037 124.307H188.74V139.555H204.037V124.307Z" fill="#FFC700"/>
<path opacity="0.2" d="M224.941 124.307H209.644V139.555H224.941V124.307Z" fill="#FFC700"/>
<path opacity="0.2" d="M245.85 124.307H230.553V139.555H245.85V124.307Z" fill="#FFC700"/>
<path opacity="0.4" d="M266.76 124.307H251.463V139.555H266.76V124.307Z" fill="#FFC700"/>
<path opacity="0.4" d="M287.664 124.307H272.367V139.555H287.664V124.307Z" fill="#FFC700"/>
<path d="M308.574 124.307H293.277V139.555H308.574V124.307Z" fill="#FFC700"/>
<path opacity="0.2" d="M329.478 124.307H314.181V139.555H329.478V124.307Z" fill="#FFC700"/>
<path opacity="0.4" d="M350.387 124.307H335.09V139.555H350.387V124.307Z" fill="#FFC700"/>
<path opacity="0.4" d="M371.298 124.307H356.001V139.555H371.298V124.307Z" fill="#FFC700"/>
<path opacity="0.4" d="M392.201 124.307H376.904V139.555H392.201V124.307Z" fill="#FFC700"/>
<path opacity="0.4" d="M413.111 124.307H397.814V139.555H413.111V124.307Z" fill="#FFC700"/>
<path opacity="0.2" d="M434.021 124.307H418.724V139.555H434.021V124.307Z" fill="#FFC700"/>
<path opacity="0.2" d="M454.925 124.307H439.627V139.555H454.925V124.307Z" fill="#FFC700"/>
<path opacity="0.2" d="M475.834 124.307H460.537V139.555H475.834V124.307Z" fill="#FFC700"/>
<path opacity="0.2" d="M496.738 124.307H481.441V139.555H496.738V124.307Z" fill="#FFC700"/>
<path opacity="0.7" d="M517.648 124.307H502.351V139.555H517.648V124.307Z" fill="#FFC700"/>
<path opacity="0.7" d="M538.558 124.307H523.261V139.555H538.558V124.307Z" fill="#FFC700"/>
<path opacity="0.4" d="M559.462 124.307H544.165V139.555H559.462V124.307Z" fill="#FFC700"/>
<path opacity="0.2" d="M580.372 124.307H565.074V139.555H580.372V124.307Z" fill="#FFC700"/>
<path d="M601.275 124.307H585.978V139.555H601.275V124.307Z" fill="#FFC700"/>
<path opacity="0.2" d="M78.59 143.626H63.293V158.875H78.59V143.626Z" fill="#FFC700"/>
<path opacity="0.2" d="M99.4997 143.626H84.2026V158.875H99.4997V143.626Z" fill="#FFC700"/>
<path opacity="0.4" d="M120.404 143.626H105.107V158.875H120.404V143.626Z" fill="#FFC700"/>
<path opacity="0.2" d="M141.314 143.626H126.017V158.875H141.314V143.626Z" fill="#FFC700"/>
<path opacity="0.2" d="M162.223 143.626H146.926V158.875H162.223V143.626Z" fill="#FFC700"/>
<path opacity="0.7" d="M183.127 143.626H167.83V158.875H183.127V143.626Z" fill="#FFC700"/>
<path opacity="0.7" d="M204.037 143.626H188.74V158.875H204.037V143.626Z" fill="#FFC700"/>
<path opacity="0.2" d="M224.941 143.626H209.644V158.875H224.941V143.626Z" fill="#FFC700"/>
<path opacity="0.2" d="M245.85 143.626H230.553V158.875H245.85V143.626Z" fill="#FFC700"/>
<path opacity="0.4" d="M266.76 143.626H251.463V158.875H266.76V143.626Z" fill="#FFC700"/>
<path d="M287.664 143.626H272.367V158.875H287.664V143.626Z" fill="#FFC700"/>
<path opacity="0.2" d="M308.574 143.626H293.277V158.875H308.574V143.626Z" fill="#FFC700"/>
<path d="M329.478 143.626H314.181V158.875H329.478V143.626Z" fill="#FFC700"/>
<path d="M350.387 143.626H335.09V158.875H350.387V143.626Z" fill="#FFC700"/>
<path d="M371.298 143.626H356.001V158.875H371.298V143.626Z" fill="#FFC700"/>
<path opacity="0.2" d="M392.201 143.626H376.904V158.875H392.201V143.626Z" fill="#FFC700"/>
<path d="M413.111 143.626H397.814V158.875H413.111V143.626Z" fill="#FFC700"/>
<path opacity="0.2" d="M434.021 143.626H418.724V158.875H434.021V143.626Z" fill="#FFC700"/>
<path opacity="0.2" d="M454.925 143.626H439.627V158.875H454.925V143.626Z" fill="#FFC700"/>
<path opacity="0.2" d="M475.834 143.626H460.537V158.875H475.834V143.626Z" fill="#FFC700"/>
<path opacity="0.2" d="M496.738 143.626H481.441V158.875H496.738V143.626Z" fill="#FFC700"/>
<path opacity="0.2" d="M517.648 143.626H502.351V158.875H517.648V143.626Z" fill="#FFC700"/>
<path opacity="0.7" d="M538.558 143.626H523.261V158.875H538.558V143.626Z" fill="#FFC700"/>
<path opacity="0.2" d="M559.462 143.626H544.165V158.875H559.462V143.626Z" fill="#FFC700"/>
<path opacity="0.2" d="M580.372 143.626H565.074V158.875H580.372V143.626Z" fill="#FFC700"/>
<path d="M601.275 143.626H585.978V158.875H601.275V143.626Z" fill="#FFC700"/>
<path opacity="0.2" d="M78.59 162.939H63.293V178.188H78.59V162.939Z" fill="#FFC700"/>
<path opacity="0.2" d="M99.4997 162.939H84.2026V178.188H99.4997V162.939Z" fill="#FFC700"/>
<path opacity="0.2" d="M120.404 162.939H105.107V178.188H120.404V162.939Z" fill="#FFC700"/>
<path opacity="0.4" d="M141.314 162.939H126.017V178.188H141.314V162.939Z" fill="#FFC700"/>
<path opacity="0.2" d="M162.223 162.939H146.926V178.188H162.223V162.939Z" fill="#FFC700"/>
<path opacity="0.2" d="M183.127 162.939H167.83V178.188H183.127V162.939Z" fill="#FFC700"/>
<path opacity="0.7" d="M204.037 162.939H188.74V178.188H204.037V162.939Z" fill="#FFC700"/>
<path opacity="0.2" d="M224.941 162.939H209.644V178.188H224.941V162.939Z" fill="#FFC700"/>
<path opacity="0.2" d="M245.85 162.939H230.553V178.188H245.85V162.939Z" fill="#FFC700"/>
<path opacity="0.2" d="M266.76 162.939H251.463V178.188H266.76V162.939Z" fill="#FFC700"/>
<path d="M287.664 162.939H272.367V178.188H287.664V162.939Z" fill="#FFC700"/>
<path opacity="0.2" d="M308.574 162.939H293.277V178.188H308.574V162.939Z" fill="#FFC700"/>
<path d="M329.478 162.939H314.181V178.188H329.478V162.939Z" fill="#FFC700"/>
<path d="M350.387 162.939H335.09V178.188H350.387V162.939Z" fill="#FFC700"/>
<path opacity="0.2" d="M371.298 162.939H356.001V178.188H371.298V162.939Z" fill="#FFC700"/>
<path opacity="0.2" d="M392.201 162.939H376.904V178.188H392.201V162.939Z" fill="#FFC700"/>
<path opacity="0.2" d="M413.111 162.939H397.814V178.188H413.111V162.939Z" fill="#FFC700"/>
<path opacity="0.2" d="M434.021 162.939H418.724V178.188H434.021V162.939Z" fill="#FFC700"/>
<path opacity="0.2" d="M454.925 162.939H439.627V178.188H454.925V162.939Z" fill="#FFC700"/>
<path opacity="0.2" d="M475.834 162.939H460.537V178.188H475.834V162.939Z" fill="#FFC700"/>
<path opacity="0.2" d="M496.738 162.939H481.441V178.188H496.738V162.939Z" fill="#FFC700"/>
<path opacity="0.2" d="M517.648 162.939H502.351V178.188H517.648V162.939Z" fill="#FFC700"/>
<path opacity="0.2" d="M538.558 162.939H523.261V178.188H538.558V162.939Z" fill="#FFC700"/>
<path opacity="0.2" d="M559.462 162.939H544.165V178.188H559.462V162.939Z" fill="#FFC700"/>
<path opacity="0.4" d="M580.372 162.939H565.074V178.188H580.372V162.939Z" fill="#FFC700"/>
<path d="M601.275 162.939H585.978V178.188H601.275V162.939Z" fill="#FFC700"/>
<path opacity="0.7" d="M78.59 182.259H63.293V197.507H78.59V182.259Z" fill="#FFC700"/>
<path opacity="0.7" d="M99.4997 182.259H84.2026V197.507H99.4997V182.259Z" fill="#FFC700"/>
<path opacity="0.7" d="M120.404 182.259H105.107V197.507H120.404V182.259Z" fill="#FFC700"/>
<path opacity="0.7" d="M141.314 182.259H126.017V197.507H141.314V182.259Z" fill="#FFC700"/>
<path opacity="0.7" d="M162.223 182.259H146.926V197.507H162.223V182.259Z" fill="#FFC700"/>
<path opacity="0.2" d="M183.127 182.259H167.83V197.507H183.127V182.259Z" fill="#FFC700"/>
<path opacity="0.2" d="M204.037 182.259H188.74V197.507H204.037V182.259Z" fill="#FFC700"/>
<path opacity="0.2" d="M224.941 182.259H209.644V197.507H224.941V182.259Z" fill="#FFC700"/>
<path opacity="0.2" d="M245.85 182.259H230.553V197.507H245.85V182.259Z" fill="#FFC700"/>
<path opacity="0.2" d="M266.76 182.259H251.463V197.507H266.76V182.259Z" fill="#FFC700"/>
<path opacity="0.2" d="M287.664 182.259H272.367V197.507H287.664V182.259Z" fill="#FFC700"/>
<path d="M308.574 182.259H293.277V197.507H308.574V182.259Z" fill="#FFC700"/>
<path opacity="0.2" d="M329.478 182.259H314.181V197.507H329.478V182.259Z" fill="#FFC700"/>
<path opacity="0.2" d="M350.387 182.259H335.09V197.507H350.387V182.259Z" fill="#FFC700"/>
<path opacity="0.2" d="M371.298 182.259H356.001V197.507H371.298V182.259Z" fill="#FFC700"/>
<path d="M392.201 182.259H376.904V197.507H392.201V182.259Z" fill="#FFC700"/>
<path opacity="0.2" d="M413.111 182.259H397.814V197.507H413.111V182.259Z" fill="#FFC700"/>
<path opacity="0.2" d="M434.021 182.259H418.724V197.507H434.021V182.259Z" fill="#FFC700"/>
<path opacity="0.2" d="M454.925 182.259H439.627V197.507H454.925V182.259Z" fill="#FFC700"/>
<path opacity="0.2" d="M475.834 182.259H460.537V197.507H475.834V182.259Z" fill="#FFC700"/>
<path opacity="0.2" d="M496.738 182.259H481.441V197.507H496.738V182.259Z" fill="#FFC700"/>
<path opacity="0.2" d="M517.648 182.259H502.351V197.507H517.648V182.259Z" fill="#FFC700"/>
<path opacity="0.2" d="M538.558 182.259H523.261V197.507H538.558V182.259Z" fill="#FFC700"/>
<path opacity="0.2" d="M559.462 182.259H544.165V197.507H559.462V182.259Z" fill="#FFC700"/>
<path opacity="0.2" d="M580.372 182.259H565.074V197.507H580.372V182.259Z" fill="#FFC700"/>
<path d="M601.275 182.259H585.978V197.507H601.275V182.259Z" fill="#FFC700"/>
<path d="M246.649 190.998C244.562 200.075 242.791 209.221 241.336 218.434C240.898 221.172 240.508 224.059 241.504 226.647C242.337 228.805 244.034 230.491 245.365 232.379C246.697 234.268 247.704 236.689 246.895 238.853C246.085 241.017 243.722 242.2 241.468 242.81C235.015 244.544 228.137 243.282 221.715 241.405C218.807 240.659 216.02 239.508 213.434 237.986C210.712 236.265 208.481 233.874 206.43 231.411C197.07 220.096 190.941 206.515 185.172 193.018C188.879 193.354 192.613 192.806 196.065 191.42C199.518 190.033 202.589 187.848 205.027 185.044C207.39 182.276 209.123 178.421 207.791 175.038C211.695 177.172 216.33 177.315 220.534 178.774C223.141 179.766 225.65 180.997 228.029 182.45C230.9 184.104 233.754 185.789 236.593 187.507C239.837 189.455 242.877 191.189 246.649 190.998Z" fill="#AE6E79"/>
<path d="M202.917 206.646C206.58 213.754 211.348 220.586 218.154 224.818C224.96 229.05 234.122 230.198 240.94 226.013C244.298 223.969 246.841 220.861 249.773 218.243C252.706 215.625 256.369 213.383 260.309 213.724C264.651 214.1 268.051 217.478 270.959 220.711C275.372 225.625 279.636 230.748 282.76 236.564C288.757 247.741 290.178 260.808 289.914 273.48C289.65 286.153 287.809 298.759 287.767 311.431C287.707 327.02 290.358 342.484 293.038 357.84C268.392 354.815 243.717 361.427 219.017 363.931C203.21 365.551 187.284 365.515 171.393 365.473C168.599 365.473 165.624 365.402 163.298 363.859C161.876 362.825 160.726 361.463 159.946 359.89C157.751 355.856 156.869 351.253 156.258 346.704C154.705 335.215 154.657 323.583 154.615 311.987C154.507 283.893 154.405 255.697 157.985 227.825C158.866 220.968 159.994 214.076 162.632 207.663C165.271 201.249 169.576 195.349 175.596 191.912C179.464 189.7 188.429 185.851 192.986 188.08C198.101 190.567 200.464 201.888 202.917 206.646Z" fill="#767D9F"/>
<path d="M201.094 285.979C202.023 268.645 205.807 250.144 197.754 234.758C195.775 230.981 202.875 226.264 200.68 222.606C198.002 218.146 195.971 213.33 194.647 208.302C194.192 206.575 193.826 204.746 194.258 203.012C195.055 199.85 198.191 197.967 200.854 196.042C203.792 193.915 205.303 187.429 206.251 183.92C207.198 180.411 198.713 184.638 195.301 183.388C190.564 181.661 184.543 182.749 179.818 184.5C177.18 185.468 174.313 185.552 171.501 185.624C166.038 185.767 160.557 185.905 155.137 185.235C152.702 184.93 150.261 184.47 147.815 184.608C141.572 184.96 136.146 189.216 132.452 194.249C128.758 199.282 126.407 205.146 123.379 210.598C120.855 215.14 117.844 219.432 115.692 224.16C113.785 228.345 112.579 232.84 111.386 237.311L108.31 248.782C107.772 250.422 107.516 252.142 107.554 253.868C107.71 255.703 108.526 257.413 109.353 259.045C112.482 265.093 116.234 270.8 120.549 276.075C127.019 283.983 134.874 291.114 138.718 300.582C140.217 304.27 141.051 308.191 141.812 312.101C144.883 327.736 147.065 343.532 148.348 359.412C155.355 356.18 162.7 353.732 170.248 352.114C174.01 351.311 177.814 350.713 181.641 350.32C184.993 349.974 189.317 350.631 192.507 349.723C197.844 348.21 198.431 339.214 199.241 334.504C200.536 327.002 200.794 319.369 200.842 311.79C200.902 303.17 200.632 294.569 201.094 285.979Z" fill="#4C4981"/>
<path d="M318.295 253.563C315.77 267.909 312.988 282.297 307.501 295.776C307.639 295.908 307.777 296.027 307.915 296.147C308.401 296.559 308.904 296.948 309.432 297.342C310.661 298.203 312.011 298.932 313.03 300.056C313.416 300.486 313.721 300.982 313.929 301.521C314.118 301.941 314.215 302.396 314.215 302.857C314.215 303.317 314.118 303.772 313.929 304.192C316.79 305.454 320.112 305.065 323.32 304.946C326.084 304.844 328.765 304.946 330.984 306.458C334.066 308.574 334.995 312.639 335.493 316.333C335.677 317.68 335.835 319.029 335.967 320.379C336.095 321.635 336.199 322.894 336.278 324.157C336.55 328.336 336.588 332.527 336.392 336.71C336.36 337.475 336.318 338.24 336.266 339.005C346.065 338.772 354.994 333.679 363.443 328.73C365.373 327.6 367.364 326.411 368.618 324.546C369.772 322.714 370.261 320.543 370.003 318.395C370.003 318.09 369.949 317.797 369.907 317.486C369.638 315.713 369.178 313.973 368.534 312.298C365.89 305.163 361.994 298.555 357.026 292.782C354.88 290.283 352.463 287.838 351.462 284.7C351.024 283.331 350.862 281.879 350.418 280.516C348.427 274.61 341.244 271.819 338.785 266.086C338.185 264.717 337.91 263.217 337.166 261.902C336.497 260.809 335.633 259.847 334.617 259.063C334.18 258.698 333.724 258.345 333.274 257.993C329.061 254.701 325.001 251.224 321.095 247.562C320.368 246.881 319.648 246.191 318.937 245.494C319.032 248.199 318.816 250.907 318.295 253.563Z" fill="#4C4981"/>
<path d="M257.868 211.135C258.732 212.044 259.667 212.899 260.585 213.748L260.831 213.969L261.802 214.865C263.565 216.382 265.091 218.153 266.329 220.12L266.431 220.287C269.49 225.744 268.356 232.463 267.505 238.662C266.449 246.386 265.974 254.178 266.084 261.974C266.24 272.733 267.511 283.421 267.535 294.168C267.535 296.607 267.481 299.04 267.373 301.479C267.199 305.442 266.899 309.399 266.539 313.356C266.15 317.695 265.682 322.029 265.244 326.363C264.896 329.716 264.567 333.063 264.291 336.411C264.153 338.144 264.021 339.872 263.913 341.605C263.787 343.638 263.685 345.676 263.625 347.708C263.583 348.999 263.559 350.284 263.559 351.576C263.559 352.311 263.559 353.04 263.559 353.769C263.559 355.168 263.597 356.563 263.673 357.954C263.753 359.743 263.875 361.536 264.039 363.333C264.225 365.288 264.555 367.422 265.934 368.797C266.018 368.88 266.108 368.958 266.198 369.036L268.14 368.797C281.534 367.198 295.055 366.958 308.497 368.079C308.203 366.059 307.933 364.045 307.669 362.018C307.549 361.062 307.429 360.099 307.316 359.137C307.184 358.037 307.058 356.937 306.938 355.838C306.8 354.642 306.674 353.447 306.554 352.251C306.242 349.171 305.968 346.088 305.732 343.004C305.385 338.505 305.121 333.998 304.941 329.483C304.853 327.327 304.785 325.169 304.737 323.009C304.669 320.331 304.637 317.652 304.641 314.97C304.641 312.364 304.663 309.753 304.707 307.139C304.707 306.278 304.743 305.418 304.815 304.563C304.867 303.793 304.973 303.028 305.133 302.274C305.578 300.533 306.18 298.837 306.932 297.205C307.064 296.894 307.19 296.607 307.316 296.278C307.387 296.117 307.453 295.949 307.519 295.788C304.065 292.722 301.607 288.615 299.244 284.574C295.412 278.065 291.491 271.269 290.849 263.749C290.208 256.229 293.955 247.783 301.163 245.488C303.124 244.89 305.199 244.723 307.22 244.37C309.126 244.035 313.102 243.276 315.309 241.913C316.508 243.141 317.707 244.346 318.907 245.53C318.834 243.724 318.391 241.952 317.606 240.323L316.754 240.365C316.823 240.174 316.856 239.971 316.85 239.767C316.85 239.128 316.406 238.405 315.459 237.604C312.634 235.213 308.191 234.681 306.41 231.447C305.666 230.102 305.541 228.5 304.941 227.089C303.22 223.066 298.279 221.584 295.305 218.368C292.33 215.152 291.587 210.597 289.182 207.011C287.386 204.392 284.895 202.322 281.986 201.034C281.746 200.92 281.501 200.806 281.255 200.705C276.278 198.583 270.365 198.099 265.208 198.111C263.205 198.111 258.012 198.17 255.47 199.181C255.057 199.327 254.68 199.557 254.36 199.856C251.65 202.797 255.866 209.007 257.868 211.135Z" fill="#4C4981"/>
<path d="M317.402 239.905C312.77 238.515 307.906 238.056 303.095 238.556C298.283 239.056 293.619 240.504 289.374 242.816C285.057 245.207 281.183 248.542 278.808 252.846C275.24 259.302 275.396 267.084 275.648 274.455C275.774 278.143 275.936 281.962 277.567 285.274C279.456 289.105 283.018 291.735 286.652 293.887C288.928 295.335 291.422 296.411 294.039 297.073C298.069 297.946 302.255 297.205 306.314 296.476C310.728 295.663 315.465 294.682 318.529 291.407C320.328 289.506 321.311 287.037 322.283 284.622C323.678 281.135 325.077 277.653 326.48 274.174C328.909 268.131 329.731 263.103 326.522 257.216C325.065 254.532 323.284 252.021 321.845 249.319C321.126 247.945 318.547 240.258 317.402 239.905Z" fill="#4C4981"/>
<path d="M65.3799 343.237V361.11C77.6805 366.203 90.8755 368.804 104.195 368.761H265.915C265.999 368.844 266.089 368.922 266.179 369L268.122 368.761H555.792C579.928 368.761 602.295 362.269 620.638 351.211V323.924L482.287 308.006H482.179L401.61 314.808L380.76 316.601L369.93 317.516L347.515 319.411L335.984 320.385L319.194 321.808L316.831 322.005L304.73 323.027L288.312 324.372L265.225 326.321L226.74 329.578L199.666 331.868L155.207 335.628L146.752 336.339L145.841 336.417L145.049 336.482L133.884 337.427L121.627 338.467L120.206 338.587L65.3799 343.237Z" fill="#504F60"/>
<path d="M458.133 342.58L284.75 313.081L278.028 346.967L357.506 356.453L381.977 359.508L449.294 346.292L458.133 342.58Z" fill="#9C9CA1"/>
<path d="M317.636 357.81L230.771 341.534C230.336 341.451 229.888 341.465 229.46 341.575C229.031 341.685 228.632 341.888 228.292 342.169C227.952 342.451 227.678 342.804 227.491 343.204C227.303 343.604 227.207 344.04 227.209 344.481C227.207 345.18 227.451 345.858 227.899 346.397C228.348 346.935 228.971 347.3 229.661 347.428L314.494 363.262L317.636 357.81Z" fill="#9C9CA1"/>
<path d="M406.065 306.625C408.77 306.374 411.51 305.95 413.945 304.754C416.943 303.266 419.276 300.702 422.052 298.813C428.156 294.628 436.324 294.067 443.322 296.47C450.319 298.872 456.16 304.019 460.25 310.164C462.966 314.258 465.005 319.483 463.086 324.002C462.428 325.383 461.598 326.676 460.616 327.851L455.614 334.367C454.664 335.736 453.521 336.962 452.22 338.007C450.349 339.364 448.023 339.92 445.732 340.254C439.646 341.139 433.451 340.637 427.317 341.043C416.781 341.743 406.491 345.126 395.931 345.012C389.863 344.947 383.872 343.727 377.942 342.508L351.695 337.128C347.126 336.196 341.963 334.833 339.81 330.702C338.844 328.843 338.665 326.692 338.551 324.599C338.239 318.837 338.551 312.429 342.556 308.275C346.322 304.378 352.277 303.146 356.774 300.265C362.279 296.733 364.096 297.874 369.9 300.528C381.225 305.64 393.684 307.741 406.065 306.625Z" fill="#AE6E79"/>
<path opacity="0.05" d="M279.953 306.625C277.249 306.374 274.508 305.95 272.074 304.754C269.076 303.266 266.743 300.702 263.967 298.813C257.862 294.628 249.695 294.067 242.697 296.47C235.699 298.872 229.858 304.019 225.769 310.164C223.052 314.258 221.014 319.483 222.933 324.002C223.591 325.383 224.421 326.676 225.403 327.851L230.404 334.367C231.354 335.736 232.497 336.962 233.798 338.007C235.669 339.364 237.996 339.92 240.286 340.254C246.373 341.139 252.567 340.637 258.702 341.043C269.238 341.743 279.528 345.126 290.087 345.012C296.156 344.947 302.146 343.727 308.077 342.508L334.324 337.128C338.893 336.196 344.056 334.833 346.209 330.702C347.174 328.843 347.354 326.692 347.468 324.599C347.78 318.837 347.468 312.429 343.462 308.275C339.696 304.378 333.742 303.146 329.245 300.265C323.74 296.733 321.923 297.874 316.118 300.528C304.794 305.64 292.334 307.741 279.953 306.625Z" fill="black"/>
<path d="M174.553 298.43C181.917 301.269 189.322 304.121 197.034 305.812C209.962 308.652 223.49 308.203 236.317 311.449C243.093 313.171 249.827 315.944 256.789 315.382C259.901 315.131 262.905 314.187 265.934 313.469C282.946 309.285 302.284 310.642 316.1 321.402C320.826 325.078 324.693 329.662 328.201 334.552C328.952 335.608 329.459 336.816 329.687 338.091C329.915 339.365 329.857 340.674 329.519 341.923C329.18 343.173 328.569 344.332 327.728 345.319C326.888 346.305 325.839 347.095 324.657 347.631C319.285 350.094 313.529 351.624 307.639 352.156C299.766 352.849 291.857 351.737 284.025 350.625C272.404 348.981 260.777 347.332 249.185 345.485C245.024 344.821 240.862 344.134 236.677 343.608C206.556 339.812 175.89 344.427 145.692 341.259C142.64 340.936 139.533 340.517 136.757 339.22C129.729 335.933 126.251 327.265 127.702 319.65C129.153 312.035 134.754 305.705 141.494 301.819C147.143 298.55 153.235 297.229 159.526 295.842C165.366 294.485 168.928 296.278 174.553 298.43Z" fill="#AE6E79"/>
<path d="M108.153 252.906C104.831 257.246 104.123 263.068 104.483 268.501C104.843 273.935 106.138 279.308 106.33 284.766C106.593 292.249 104.783 299.709 105.088 307.169C105.304 312.387 106.546 317.504 108.015 322.513C109.748 328.425 112.254 334.779 117.729 337.618C124.997 341.39 140.24 339.268 147.885 342.221C147.19 337.899 140.522 331.641 139.826 327.319C139.346 324.33 138.861 321.258 139.376 318.263C140.036 314.444 142.285 311.055 144.953 308.233C149.199 303.744 154.739 300.367 160.826 299.267C166.912 298.167 181.814 299.07 186.683 302.901C187.282 298.944 176.129 295.131 172.207 294.276C170.252 293.839 168.01 294.085 166.445 292.847C163.446 290.504 165.623 285.836 165.479 282.088C165.365 279.099 163.614 276.361 163.26 273.373C162.661 268.591 165.791 263.719 164.562 259.027C164.106 257.293 163.093 255.769 162.391 254.119C160.256 249.068 161.192 243.306 162.331 237.938C163.039 234.567 163.728 230.765 161.845 227.89C160.1 225.206 156.688 224.19 153.516 223.742C142.895 222.31 132.134 225.077 123.534 231.453C119.222 234.681 118.658 238.028 116.937 242.637C115.288 247.024 110.953 249.272 108.153 252.906Z" fill="#4C4981"/>
<path d="M504.924 224.585L472.321 344.696C471.921 346.167 471.081 347.482 469.912 348.466C468.743 349.449 467.301 350.055 465.779 350.201L319.032 364.254C317.836 364.369 316.63 364.196 315.515 363.751C314.399 363.306 313.407 362.6 312.622 361.694C311.836 360.788 311.279 359.708 310.999 358.543C310.718 357.378 310.722 356.164 311.009 355.001L346.712 210.119C347.137 208.397 348.161 206.881 349.601 205.84C351.042 204.799 352.806 204.301 354.58 204.435L498.25 215.146C499.353 215.232 500.424 215.559 501.385 216.104C502.347 216.649 503.176 217.399 503.814 218.301C504.451 219.202 504.881 220.233 505.073 221.319C505.265 222.405 505.214 223.52 504.924 224.585Z" fill="#9C9CA1"/>
<path d="M214.027 248.022C205.118 248.022 197.896 240.73 197.896 231.734C197.896 222.738 205.118 215.445 214.027 215.445C222.936 215.445 230.158 222.738 230.158 231.734C230.158 240.73 222.936 248.022 214.027 248.022Z" fill="white"/>
<path d="M200.782 202.02C200.782 202.02 197.382 212.098 207.414 216.336L208.697 218.572L202.413 224.752C202.413 224.752 194.665 210.663 195.505 205.66C195.505 205.66 196.704 200.579 200.782 202.02Z" fill="white"/>
<path d="M212.175 248.022C203.584 248.022 196.62 241.08 196.62 232.517C196.62 223.953 203.584 217.011 212.175 217.011C220.766 217.011 227.73 223.953 227.73 232.517C227.73 241.08 220.766 248.022 212.175 248.022Z" fill="#121B6B"/>
<path opacity="0.1" d="M481.028 183.466V185.929L477.502 185.588L470.87 178.726C470.87 178.726 481.13 181.015 481.028 183.466Z" fill="black" stroke="#4C4981" stroke-miterlimit="10"/>
<path d="M240.918 238.891C236.78 236.509 236.958 228.478 241.316 220.953C245.674 213.428 252.563 209.259 256.701 211.641C260.84 214.023 260.662 222.054 256.303 229.579C251.945 237.103 245.057 241.273 240.918 238.891Z" fill="white"/>
<path d="M246.475 223.951C242.116 231.477 236.767 236.504 240.905 238.895C245.042 241.286 257.095 240.09 261.455 232.559C265.814 225.027 261.856 214.626 257.719 212.235C253.581 209.844 250.841 216.408 246.475 223.951Z" fill="#121B6B"/>
<path d="M248.292 215.786C224.165 215.786 204.607 196.29 204.607 172.24C204.607 148.191 224.165 128.694 248.292 128.694C272.418 128.694 291.976 148.191 291.976 172.24C291.976 196.29 272.418 215.786 248.292 215.786Z" fill="#AE6E79"/>
<path d="M252.129 152.945C246.93 154.852 243.853 160.208 239.188 163.19C232.592 167.375 224.005 166.293 216.473 164.224C212.276 163.083 207.886 161.69 203.755 162.957C203.147 163.225 202.477 163.321 201.818 163.232C200.919 162.975 200.475 161.983 200.181 161.098C195.072 145.916 197.369 128.718 205.08 114.671C207.071 111.049 209.458 107.546 212.744 105.03C215.334 103.051 218.38 101.754 221.451 100.648C227.061 98.6396 232.865 97.2114 238.768 96.3864C239.811 96.1975 240.876 96.1633 241.929 96.2848C243.374 96.5179 244.669 97.2949 245.958 97.9883C251.48 100.939 257.603 102.597 263.864 102.836C272.259 103.153 281.853 101.18 288.324 106.548C296.119 112.986 294.176 125.544 299.231 134.283C302.577 140.064 309.029 144.26 310.091 150.841C310.367 152.852 310.239 154.899 309.713 156.86C307.242 166.986 297.408 174.828 286.926 175.014C285.317 175.136 283.705 174.807 282.273 174.063C281.335 173.425 280.507 172.64 279.82 171.738C272.954 163.633 265.099 148.187 252.129 152.945Z" fill="#444053"/>
<path opacity="0.1" d="M200.182 156.693C200.476 157.577 200.92 158.57 201.819 158.827C202.478 158.915 203.148 158.82 203.756 158.552C207.888 157.285 212.301 158.677 216.469 159.819C224.006 161.887 232.611 162.993 239.183 158.785C243.855 155.796 246.925 150.416 252.13 148.54C265.1 143.758 272.956 159.227 279.84 167.333C280.526 168.235 281.354 169.02 282.292 169.658C283.724 170.402 285.336 170.731 286.946 170.608C297.392 170.423 307.232 162.581 309.732 152.455C309.87 151.857 309.99 151.259 310.08 150.662C310.08 150.715 310.08 150.763 310.11 150.817C310.387 152.829 310.258 154.875 309.732 156.836C307.262 166.962 297.422 174.805 286.946 174.99C285.336 175.112 283.724 174.783 282.292 174.039C281.354 173.401 280.526 172.616 279.84 171.714C272.956 163.609 265.1 148.163 252.13 152.921C246.925 154.828 243.855 160.184 239.183 163.166C232.587 167.351 224.006 166.269 216.469 164.201C212.271 163.059 207.888 161.666 203.756 162.933C203.148 163.202 202.478 163.297 201.819 163.208C200.92 162.951 200.476 161.959 200.182 161.074C198.121 154.862 197.211 148.328 197.496 141.791C197.672 146.861 198.577 151.879 200.182 156.693Z" fill="black"/>
</g>
<defs>
<clipPath id="clip0">
<rect width="686" height="369" fill="white"/>
</clipPath>
</defs>
</svg>
